HIERARCHY
ROOT RootJoint
{
    OFFSET   0.000000   0.000000   0.000000
    CHANNELS 6 Xposition Yposition Zposition Xrotation Yrotation Zrotation
    JOINT pelvis_lowerback
    {
        OFFSET   0.000000   0.093605   0.000000
        CHANNELS 3 Xrotation Yrotation Zrotation
        JOINT lowerback_torso
        {
            OFFSET   0.000000   0.100000   0.000000
            CHANNELS 3 Xrotation Yrotation Zrotation
            JOINT torso_head
            {
                OFFSET   0.000000   0.282350   0.000000
                CHANNELS 3 Xrotation Yrotation Zrotation
                End Site
                {
                    OFFSET   0.000000   0.192650   0.000000
                }
            }
            JOINT rTorso_Clavicle
            {
                OFFSET  -0.001000   0.157500   0.000000
                CHANNELS 3 Xrotation Yrotation Zrotation
                JOINT rShoulder
                {
                    OFFSET  -0.117647   0.000000   0.000000
                    CHANNELS 3 Xrotation Yrotation Zrotation
                    JOINT rElbow
                    {
                        OFFSET  -0.245000   0.000000   0.000000
                        CHANNELS 3 Xrotation Yrotation Zrotation
                        JOINT rWrist
                        {
                            OFFSET  -0.240000   0.000000   0.000000
                            CHANNELS 3 Xrotation Yrotation Zrotation
                            End Site
                            {
                                OFFSET  -0.116353  -0.002500   0.000000
                            }
                        }
                    }
                }
            }
            JOINT lTorso_Clavicle
            {
                OFFSET   0.001000   0.157500   0.000000
                CHANNELS 3 Xrotation Yrotation Zrotation
                JOINT lShoulder
                {
                    OFFSET   0.117647   0.000000   0.000000
                    CHANNELS 3 Xrotation Yrotation Zrotation
                    JOINT lElbow
                    {
                        OFFSET   0.245000   0.000000   0.000000
                        CHANNELS 3 Xrotation Yrotation Zrotation
                        JOINT lWrist
                        {
                            OFFSET   0.240000   0.000000   0.000000
                            CHANNELS 3 Xrotation Yrotation Zrotation
                            End Site
                            {
                                OFFSET   0.116353  -0.002500   0.000000
                            }
                        }
                    }
                }
            }
        }
    }
    JOINT rHip
    {
        OFFSET  -0.100000  -0.051395   0.000000
        CHANNELS 3 Xrotation Yrotation Zrotation
        JOINT rKnee
        {
            OFFSET   0.000000  -0.410000   0.000000
            CHANNELS 3 Xrotation Yrotation Zrotation
            JOINT rAnkle
            {
                OFFSET   0.000000  -0.390000   0.000000
                CHANNELS 3 Xrotation Yrotation Zrotation
                JOINT rToeJoint
                {
                    OFFSET   0.000000  -0.050000   0.130000
                    CHANNELS 3 Xrotation Yrotation Zrotation
                    End Site
                    {
                        OFFSET  -0.010000   0.002000   0.060000
                    }
                }
            }
        }
    }
    JOINT lHip
    {
        OFFSET   0.100000  -0.051395   0.000000
        CHANNELS 3 Xrotation Yrotation Zrotation
        JOINT lKnee
        {
            OFFSET   0.000000  -0.410000   0.000000
            CHANNELS 3 Xrotation Yrotation Zrotation
            JOINT lAnkle
            {
                OFFSET   0.000000  -0.390000   0.000000
                CHANNELS 3 Xrotation Yrotation Zrotation
                JOINT lToeJoint
                {
                    OFFSET   0.000000  -0.050000   0.130000
                    CHANNELS 3 Xrotation Yrotation Zrotation
                    End Site
                    {
                        OFFSET   0.010000   0.002000   0.060000
                    }
                }
            }
        }
    }
}
MOTION
Frames: 15
Frame Time:   0.008333
 -2.440239   0.910543   4.715798   4.217134  -2.530856   0.221565   7.273537  -0.196836  -2.463695  -0.185619  -2.372539   0.833695  -3.309257  -0.885436   1.435771   2.416881  -2.331660   7.662942   7.290723   9.907651  47.180438   0.000122  19.253130  -0.000227   7.741827   3.233901   3.598004   2.122848   1.919762  -6.182490   8.702998 -12.273000 -45.855963  -0.010791 -13.910152   0.006270   8.181223  -4.031530  -2.983422 -20.276249  -2.436543  -4.620687  60.260629  -0.001862  -0.001539  -5.461092  -4.271358   5.610498  -5.759450  -0.002123  -0.001786  -6.790406  -3.610928  -1.613629  16.735242  -0.001998  -0.010941 -14.342890   1.700013   5.056754   0.000796  -0.000192  -0.000011
 -2.440976   0.910760   4.725505   4.032712  -2.191596   0.024038   7.430488  -0.415945  -2.285434  -0.201107  -2.486593   0.940288  -3.231314  -0.807816   1.466437   2.470975  -2.466182   7.658052   7.354602   9.740284  47.008811   0.000179  19.196199  -0.000288   7.671941   3.271406   3.649739   2.047140   1.749080  -6.089686   8.271704 -12.642251 -45.515671  -0.013846 -14.901368   0.005455   8.195779  -3.968796  -3.054006 -21.206290  -2.522810  -4.566270  58.708462  -0.003574  -0.003234  -5.917298  -4.577061   5.702973  -5.550854  -0.002092  -0.001150  -5.496480  -3.643713  -1.345374  15.866844  -0.001847  -0.011453 -14.507596   1.445257   4.828376  -0.076997  -0.000285  -0.000074
 -2.441692   0.910665   4.735095   3.879102  -1.877206  -0.124528   7.583714  -0.619761  -2.154472  -0.228985  -2.597986   1.029278  -3.157197  -0.729944   1.491897   2.522021  -2.591468   7.638046   7.416079   9.579662  46.839879   0.000235  19.139876  -0.000327   7.604136   3.284728   3.685256   1.935675   1.564964  -5.954492   7.840027 -13.011981 -45.162153  -0.016479 -15.853151   0.004762   8.198456  -4.055159  -3.035037 -22.139874  -2.571809  -4.584484  56.957228  -0.005361  -0.004542  -6.352500  -4.864250   5.786131  -5.341982  -0.002076  -0.000607  -4.272494  -3.659664  -1.121125  15.061640  -0.001660  -0.011515 -14.715141   1.209248   4.603590  -0.131046  -0.000317  -0.000104
 -2.442404   0.910291   4.744633   3.733807  -1.576041  -0.240347   7.738352  -0.824500  -2.049033  -0.256866  -2.717331   1.104832  -3.086401  -0.656303   1.512331   2.566486  -2.705734   7.609511   7.471734   9.429327  46.673945   0.000279  19.086900  -0.000353   7.540281   3.287709   3.703142   1.808596   1.372022  -5.801563   7.422846 -13.371210 -44.809890  -0.018334 -16.749630   0.004335   8.198441  -4.192188  -2.948572 -23.080875  -2.596343  -4.649057  55.219576  -0.006806  -0.005487  -6.762028  -5.133282   5.861805  -5.148112  -0.002032  -0.000173  -3.089577  -3.671111  -0.925457  14.317953  -0.001453  -0.011268 -14.967862   0.988785   4.379830  -0.163608  -0.000306  -0.000109
 -2.443132   0.909698   4.754178   3.591103  -1.279535  -0.334225   7.889472  -1.032360  -1.957950  -0.281825  -2.844994   1.171910  -3.018792  -0.587647   1.529509   2.607565  -2.813244   7.578403   7.523750   9.287299  46.513789   0.000309  19.036592  -0.000370   7.479724   3.283521   3.706565   1.676261   1.177432  -5.645688   7.025236 -13.716302 -44.469304  -0.019393 -17.590511   0.004048   8.198421  -4.345251  -2.824017 -24.016442  -2.604682  -4.740271  53.554679  -0.007844  -0.006244  -7.145728  -5.385022   5.931048  -4.971665  -0.001960   0.000170  -1.937498  -3.680363  -0.747228  13.633164  -0.001250  -0.010854 -15.250505   0.782327   4.159233  -0.200361  -0.000301  -0.000118
 -2.443888   0.908934   4.763770   3.451278  -0.983865  -0.412167   8.031956  -1.241186  -1.875782  -0.304656  -2.978584   1.233295  -2.954875  -0.523831   1.544587   2.648141  -2.917017   7.548439   7.574203   9.151890  46.362029   0.000326  18.988184  -0.000380   7.422212   3.271659   3.702047   1.544831   0.986224  -5.494951   6.649381 -14.045574 -44.146683  -0.019758 -18.377809   0.003794   8.198874  -4.503188  -2.682195 -24.935794  -2.601678  -4.845686  51.979461  -0.008489  -0.006904  -7.504699  -5.620408   5.994602  -4.812330  -0.001869   0.000439  -0.813498  -3.688078  -0.579753  13.004390  -0.001059  -0.010346 -15.547015   0.588805   3.944674  -0.265986  -0.000336  -0.000153
 -2.444681   0.908036   4.773431   3.316399  -0.687877  -0.477732   8.162299  -1.448082  -1.799702  -0.326873  -3.115174   1.290421  -2.895134  -0.464526   1.558207   2.689616  -3.018440   7.521608   7.624109   9.022245  46.220193   0.000332  18.941306  -0.000385   7.367581   3.251957   3.695166   1.418077   0.801660  -5.353498   6.296109 -14.358197 -43.845151  -0.019572 -19.114141   0.003519   8.199776  -4.661615  -2.536271 -25.831324  -2.590637  -4.957300  50.497666  -0.008782  -0.007490  -7.840330  -5.840383   6.053067  -4.669036  -0.001766   0.000643   0.282606  -3.694583  -0.418735  12.428733  -0.000883  -0.009785 -15.844891   0.407142   3.738435  -0.378586  -0.000417  -0.000230
 -2.445455   0.907014   4.783026   3.208329  -0.384706  -0.508508   8.299133  -1.659360  -1.740057  -0.348493  -3.202408   1.313984  -2.900116  -0.372508   1.529198   2.710385  -3.134963   7.549600   7.661648   8.854956  46.063138   0.000450  18.808201  -0.000528   7.293583   3.254834   3.652328   1.300900   0.669492  -5.240154   5.825132 -14.648419 -43.434085  -0.021531 -20.056165   0.002023   8.194878  -4.650178  -2.544265 -26.533679  -2.534869  -5.126463  48.173859  -0.011222  -0.009427  -7.904233  -5.916347   6.106041  -4.523948  -0.001687   0.001072   1.283843  -3.634318  -0.288237  11.966756  -0.000777  -0.009318 -16.125198   0.186166   3.517646  -0.592567  -0.000622  -0.000438
 -2.446212   0.905751   4.792585   3.118145  -0.115984  -0.495897   8.432309  -1.854587  -1.715972  -0.374410  -3.284350   1.321835  -2.904470  -0.282696   1.492748   2.732500  -3.242472   7.576086   7.698926   8.696228  45.918020   0.000524  18.679556  -0.000616   7.223852   3.223669   3.611575   1.163228   0.532041  -5.097327   5.366769 -14.934993 -43.022097  -0.023008 -20.951030   0.000934   8.183071  -4.717459  -2.480838 -27.242478  -2.445608  -5.352950  45.772854  -0.013273  -0.010586  -7.968526  -5.986388   6.154784  -4.358425  -0.001660   0.001476   2.242033  -3.571752  -0.200551  11.553421  -0.000659  -0.008670 -16.440100  -0.021153   3.296597  -0.794637  -0.000768  -0.000558
 -2.446976   0.904289   4.802181   3.030802   0.128222  -0.462738   8.563665  -2.044390  -1.704036  -0.397838  -3.368860   1.324941  -2.906984  -0.198217   1.454899   2.753438  -3.342354   7.600436   7.733875   8.547332  45.781256   0.000560  18.558455  -0.000675   7.158219   3.181895   3.570614   1.021331   0.393125  -4.945416   4.931801 -15.210646 -42.622140  -0.023779 -21.790227   0.000283   8.170980  -4.808422  -2.370175 -27.963446  -2.342403  -5.605007  43.460740  -0.014525  -0.011081  -8.031066  -6.052136   6.199910  -4.205489  -0.001606   0.001725   3.184182  -3.514059  -0.130422  11.177693  -0.000535  -0.007947 -16.786022  -0.215922   3.075789  -0.989376  -0.000871  -0.000620
 -2.447765   0.902680   4.811863   2.943951   0.355966  -0.419991   8.689207  -2.231137  -1.694253  -0.418030  -3.456847   1.328792  -2.908241  -0.119447   1.418131   2.774676  -3.437584   7.624642   7.767661   8.406640  45.653143   0.000561  18.444304  -0.000714   7.095860   3.134850   3.528736   0.882477   0.256980  -4.795638   4.522891 -15.473353 -42.241941  -0.023889 -22.574973  -0.000074   8.159867  -4.903456  -2.237504 -28.686852  -2.232793  -5.864213  41.276051  -0.015061  -0.011203  -8.090678  -6.113700   6.241924  -4.067998  -0.001527   0.001850   4.115283  -3.461713  -0.065884  10.838590  -0.000414  -0.007207 -17.145470  -0.399082   2.859138  -1.205520  -0.000968  -0.000667
 -2.448590   0.900963   4.821658   2.859063   0.571791  -0.372789   8.805387  -2.414154  -1.682582  -0.436212  -3.547267   1.335513  -2.908999  -0.046145   1.383436   2.797501  -3.529960   7.650020   7.801307   8.272956  45.534508   0.000535  18.336414  -0.000737   7.036446   3.083309   3.488602   0.750328   0.126169  -4.653290   4.140442 -15.722471 -41.885218  -0.023458 -23.308011  -0.000254   8.149770  -4.997066  -2.098590 -29.403820  -2.120394  -6.120275  39.225105  -0.015027  -0.011126  -8.147123  -6.171242   6.281132  -3.945569  -0.001433   0.001885   5.034483  -3.414340  -0.001224  10.536082  -0.000303  -0.006480 -17.502852  -0.571661   2.650181  -1.467756  -0.001077  -0.000724
 -2.449458   0.899187   4.831593   2.777543   0.799675  -0.320973   8.910188  -2.599727  -1.667764  -0.453209  -3.644370   1.345835  -2.909835   0.021743   1.351215   2.824011  -3.622232   7.679027   7.836508   8.144383  45.426258   0.000487  18.233630  -0.000740   6.979801   3.025110   3.452521   0.625595   0.000059  -4.522320   3.782847 -15.959078 -41.553621  -0.022626 -23.992656  -0.000375   8.140666  -5.088584  -1.962189 -30.100758  -2.008347  -6.375320  37.304929  -0.014671  -0.011207  -8.200463  -6.225106   6.317744  -3.837196  -0.001327   0.001870   5.934385  -3.349345   0.060131  10.280271  -0.000234  -0.005852 -17.831698  -0.710557   2.445875  -0.967419  -0.000324   0.000045
 -2.450322   0.897338   4.841567   2.690637   1.075141  -0.205038   9.026449  -2.785202  -1.692449  -0.464670  -3.723999   1.327120  -2.964404   0.085350   1.265265   2.803658  -3.731694   7.806334   7.883647   8.003635  45.273178   0.000470  17.935221  -0.000958   6.942322   3.027825   3.380950   0.471808  -0.094598  -4.421278   3.364399 -16.234260 -41.191236  -0.022445 -24.700146  -0.001254   8.158578  -5.089968  -1.885824 -30.692600  -1.848761  -6.706197  35.243097  -0.015165  -0.012441  -8.195872  -6.144429   6.355259  -3.672307  -0.001320   0.002325   6.706204  -3.289340   0.071131  10.262317  -0.000180  -0.004737 -18.111702  -0.905534   2.127324  -1.732049  -0.001724  -0.000829
 -2.451201   0.895371   4.851684   2.602576   1.324300  -0.067918   9.129353  -2.947939  -1.726683  -0.477605  -3.795543   1.299224  -3.015803   0.147349   1.175060   2.792830  -3.836229   7.939947   7.934281   7.866298  45.136049   0.000370  17.646611  -0.001081   6.911107   2.961576   3.321814   0.315513  -0.189371  -4.321770   2.963903 -16.501690 -40.849118  -0.022021 -25.368213  -0.001973   8.173244  -5.123771  -1.780650 -31.256331  -1.678287  -7.043578  33.264905  -0.015078  -0.013037  -8.193182  -6.067662   6.389757  -3.514176  -0.001292   0.002612   7.458865  -3.239291   0.064665  10.304058  -0.000142  -0.003674 -18.383226  -1.099885   1.818650  -2.539006  -0.002846  -0.001389
